<mxfile host="app.diagrams.net" modified="2021-02-13T00:40:19.601Z" agent="5.0 (Windows NT 10.0; Win64; x64) AppleWebKit/537.36 (KHTML, like Gecko) Chrome/85.0.4183.102 Safari/537.36" etag="mb-icXR7pC5aEmKxHaGG" version="14.3.1" type="github">
  <diagram id="nSkH1ZWl0PtohvV5s2j_" name="Page-1">
    <mxGraphModel dx="2574" dy="1404" grid="1" gridSize="10" guides="1" tooltips="1" connect="1" arrows="1" fold="1" page="1" pageScale="1" pageWidth="850" pageHeight="1100" math="0" shadow="0">
      <root>
        <mxCell id="0" />
        <mxCell id="1" parent="0" />
        <mxCell id="oE-u527mggu9z8SD60DJ-26" value="" style="rounded=1;whiteSpace=wrap;html=1;sketch=0;" vertex="1" parent="1">
          <mxGeometry x="140" y="330" width="600" height="150" as="geometry" />
        </mxCell>
        <mxCell id="oE-u527mggu9z8SD60DJ-23" value="" style="rounded=1;whiteSpace=wrap;html=1;" vertex="1" parent="1">
          <mxGeometry x="40" y="10" width="740" height="270" as="geometry" />
        </mxCell>
        <mxCell id="oE-u527mggu9z8SD60DJ-22" value="" style="rounded=1;whiteSpace=wrap;html=1;" vertex="1" parent="1">
          <mxGeometry x="200" y="540" width="500" height="340" as="geometry" />
        </mxCell>
        <mxCell id="oE-u527mggu9z8SD60DJ-1" value="SFTP" style="shape=cube;whiteSpace=wrap;html=1;boundedLbl=1;backgroundOutline=1;darkOpacity=0.05;darkOpacity2=0.1;" vertex="1" parent="1">
          <mxGeometry x="100" y="40" width="120" height="80" as="geometry" />
        </mxCell>
        <mxCell id="oE-u527mggu9z8SD60DJ-2" value="Spark on Kubernetes" style="shape=cube;whiteSpace=wrap;html=1;boundedLbl=1;backgroundOutline=1;darkOpacity=0.05;darkOpacity2=0.1;" vertex="1" parent="1">
          <mxGeometry x="260" y="40" width="120" height="80" as="geometry" />
        </mxCell>
        <mxCell id="oE-u527mggu9z8SD60DJ-3" value="Spark on EMR" style="shape=cube;whiteSpace=wrap;html=1;boundedLbl=1;backgroundOutline=1;darkOpacity=0.05;darkOpacity2=0.1;" vertex="1" parent="1">
          <mxGeometry x="430" y="40" width="120" height="80" as="geometry" />
        </mxCell>
        <mxCell id="oE-u527mggu9z8SD60DJ-4" value="S3&amp;nbsp; API" style="shape=cube;whiteSpace=wrap;html=1;boundedLbl=1;backgroundOutline=1;darkOpacity=0.05;darkOpacity2=0.1;" vertex="1" parent="1">
          <mxGeometry x="610" y="40" width="120" height="80" as="geometry" />
        </mxCell>
        <mxCell id="oE-u527mggu9z8SD60DJ-5" value="Spark&amp;nbsp; on Databricks" style="shape=cube;whiteSpace=wrap;html=1;boundedLbl=1;backgroundOutline=1;darkOpacity=0.05;darkOpacity2=0.1;" vertex="1" parent="1">
          <mxGeometry x="190" y="160" width="120" height="80" as="geometry" />
        </mxCell>
        <mxCell id="oE-u527mggu9z8SD60DJ-6" value="Command Module" style="shape=cube;whiteSpace=wrap;html=1;boundedLbl=1;backgroundOutline=1;darkOpacity=0.05;darkOpacity2=0.1;" vertex="1" parent="1">
          <mxGeometry x="380" y="160" width="120" height="80" as="geometry" />
        </mxCell>
        <mxCell id="oE-u527mggu9z8SD60DJ-8" value="Custom Module/Class Ingestion" style="shape=cube;whiteSpace=wrap;html=1;boundedLbl=1;backgroundOutline=1;darkOpacity=0.05;darkOpacity2=0.1;" vertex="1" parent="1">
          <mxGeometry x="570" y="160" width="120" height="80" as="geometry" />
        </mxCell>
        <mxCell id="oE-u527mggu9z8SD60DJ-13" value="" style="aspect=fixed;html=1;points=[];align=center;image;fontSize=12;image=img/lib/azure2/general/Input_Output.svg;sketch=0;flipH=0;flipV=0;" vertex="1" parent="1">
          <mxGeometry x="190" y="370" width="104.73" height="90" as="geometry" />
        </mxCell>
        <mxCell id="oE-u527mggu9z8SD60DJ-14" value="" style="aspect=fixed;html=1;points=[];align=center;image;fontSize=12;image=img/lib/azure2/general/Input_Output.svg;sketch=0;flipH=0;flipV=0;" vertex="1" parent="1">
          <mxGeometry x="550" y="370" width="104.73" height="90" as="geometry" />
        </mxCell>
        <mxCell id="oE-u527mggu9z8SD60DJ-15" value="" style="aspect=fixed;html=1;points=[];align=center;image;fontSize=12;image=img/lib/azure2/general/Input_Output.svg;sketch=0;flipH=0;flipV=0;" vertex="1" parent="1">
          <mxGeometry x="430" y="370" width="104.73" height="90" as="geometry" />
        </mxCell>
        <mxCell id="oE-u527mggu9z8SD60DJ-16" value="" style="aspect=fixed;html=1;points=[];align=center;image;fontSize=12;image=img/lib/azure2/general/Input_Output.svg;sketch=0;flipH=0;flipV=0;" vertex="1" parent="1">
          <mxGeometry x="314.73" y="370" width="104.73" height="90" as="geometry" />
        </mxCell>
        <mxCell id="oE-u527mggu9z8SD60DJ-21" style="edgeStyle=orthogonalEdgeStyle;rounded=1;orthogonalLoop=1;jettySize=auto;html=1;entryX=0.008;entryY=0.513;entryDx=0;entryDy=0;entryPerimeter=0;" edge="1" parent="1" source="oE-u527mggu9z8SD60DJ-17" target="oE-u527mggu9z8SD60DJ-18">
          <mxGeometry relative="1" as="geometry">
            <mxPoint x="260" y="650" as="targetPoint" />
            <Array as="points">
              <mxPoint x="260" y="814" />
              <mxPoint x="260" y="656" />
            </Array>
          </mxGeometry>
        </mxCell>
        <mxCell id="oE-u527mggu9z8SD60DJ-17" value="" style="outlineConnect=0;fontColor=#232F3E;gradientColor=none;fillColor=#3334B9;strokeColor=none;dashed=0;verticalLabelPosition=bottom;verticalAlign=top;align=center;html=1;fontSize=12;fontStyle=0;aspect=fixed;pointerEvents=1;shape=mxgraph.aws4.rds_postgresql_instance;" vertex="1" parent="1">
          <mxGeometry x="410" y="780" width="68" height="68" as="geometry" />
        </mxCell>
        <mxCell id="oE-u527mggu9z8SD60DJ-20" style="edgeStyle=orthogonalEdgeStyle;rounded=1;orthogonalLoop=1;jettySize=auto;html=1;exitX=1.016;exitY=0.469;exitDx=0;exitDy=0;exitPerimeter=0;" edge="1" parent="1" source="oE-u527mggu9z8SD60DJ-18">
          <mxGeometry relative="1" as="geometry">
            <mxPoint x="490" y="810" as="targetPoint" />
            <mxPoint x="484" y="668" as="sourcePoint" />
            <Array as="points">
              <mxPoint x="484" y="652" />
              <mxPoint x="484" y="650" />
              <mxPoint x="650" y="650" />
              <mxPoint x="650" y="810" />
            </Array>
          </mxGeometry>
        </mxCell>
        <mxCell id="oE-u527mggu9z8SD60DJ-18" value="" style="aspect=fixed;html=1;points=[];align=center;image;fontSize=12;image=img/lib/azure2/general/Input_Output.svg;" vertex="1" parent="1">
          <mxGeometry x="380" y="610" width="104.73" height="90" as="geometry" />
        </mxCell>
        <mxCell id="oE-u527mggu9z8SD60DJ-24" value="Task" style="text;html=1;strokeColor=none;fillColor=none;align=center;verticalAlign=middle;whiteSpace=wrap;rounded=0;sketch=0;" vertex="1" parent="1">
          <mxGeometry x="600" y="560" width="40" height="20" as="geometry" />
        </mxCell>
        <mxCell id="oE-u527mggu9z8SD60DJ-25" value="Task Modules" style="text;html=1;strokeColor=none;fillColor=none;align=center;verticalAlign=middle;whiteSpace=wrap;rounded=0;sketch=0;" vertex="1" parent="1">
          <mxGeometry x="720" y="20" width="40" height="20" as="geometry" />
        </mxCell>
        <mxCell id="oE-u527mggu9z8SD60DJ-27" value="Job" style="text;html=1;strokeColor=none;fillColor=none;align=center;verticalAlign=middle;whiteSpace=wrap;rounded=0;sketch=0;" vertex="1" parent="1">
          <mxGeometry x="680" y="340" width="40" height="20" as="geometry" />
        </mxCell>
      </root>
    </mxGraphModel>
  </diagram>
</mxfile>
